<?xml version="1.0" encoding="utf-8"?>
<!-- Generator: Adobe Illustrator 21.0.0, SVG Export Plug-In . SVG Version: 6.00 Build 0)  -->
<svg version="1.1" id="Warstwa_1" xmlns="http://www.w3.org/2000/svg" xmlns:xlink="http://www.w3.org/1999/xlink" x="0px" y="0px"
	 viewBox="0 0 5669.3 1417.3" style="enable-background:new 0 0 5669.3 1417.3;" xml:space="preserve">
<style type="text/css">
	.st0{fill:#FFFFFF;}
</style>
<g>
	<g>
		<path class="st0" d="M1009.3,1134.8c9,44.1-29.2,87.5-84.5,89c-196.7,4.5-204.1-360.4-233.3-465.8
			c-15.7-61.3-40.4-103.9-70.3-129.4c59.1-61.3,117.4-161.5,155.5-201.1c30.7-31.4,84.5-24.7,93.5,10.5c7.5,23.2,27.7,13.5,21.7-6
			c-14.2-52.3-92-60.6-139.1-19.4C694.5,462.7,642.9,556.9,598,613l-2.2-1.5c-3.7-98.7-1.5-201.9,16.4-287.1
			C639.9,316.9,663,305,681,284c82.2-97.2-31.4-169-89-56.8c-12.7,24.7-21.7,51.6-29.2,80.8c-92,9-216.8-9-296.1,44.9
			C197.9,397.8,184.4,505.4,242,566c55.3,59.1,184.7,44.1,201.9-23.9c0-14.2-12-22.4-17.9-4.5c-11.2,42.6-116.6,50.8-152.5,0
			c-31.4-44.9-26.2-118.9,38.9-162.3c68.8-46.4,164.5-35.9,245.3-42.6c-15,80-15.7,173.5-15.7,268.4l-12,2.2
			c-78.5,12.7-44.1,86.7,15,76.3c12,343.2-59.1,457.6-210.1,438.9c-98-12-131.6-127.9-83.7-197.4c44.9-61.3,102.4-16.5,80.8,22.4
			c-7.5,17.2,9.7,29.2,23.2,9.7c33.6-65.1-69.5-121.1-125.6-43.4c-57.6,80-16.4,217.6,95.7,233.3c182.4,25.4,284.1-89,272.9-485.3
			c15.7,27.7,28.4,68,42.6,118.1c28.4,103.2,9,495,284.1,470.3c71-6,122.6-59.8,105.4-117.4
			C1023.5,1107.9,1004.8,1114.6,1009.3,1134.8z M645.9,226.3c32.2-61.3,78.5-29.2,17.9,42.6c-11.2,13.5-26.9,22.4-44.9,28.4
			C625.7,271.1,634.7,247.2,645.9,226.3z M533.8,620.3c3-0.7,5.2-0.7,8.2-1.5v4.5c0.7,11.2,1.5,23.2,1.5,33.6
			C501.6,665.2,487.4,630.1,533.8,620.3z"/>
		<path class="st0" d="M1453.4,535.1c9,3.7,25.4,5.2,41.9-19.4c17.2-25.4,18.7-35.9,20.9-50.1c6-35.1-56.1-43.4-61.3-10.5
			c-3.7,22.4-4.5,29.2-8.2,44.1C1440.7,520.9,1446,532.1,1453.4,535.1z"/>
		<path class="st0" d="M1860.2,993.5c-18.7,23.9-44.9,41.1-56.1,41.9c-18.7,1.5-25.4-75.5-18.7-159.3
			c7.5-83.7,12.7-133.1,21.7-198.9c1.5-10.5-6-14.2-21.7-14.2c-13.5,0-24.7,3-26.2,16.4c-0.7,5.2-3,20.9-6,43.4l-3-5.2
			c-12-28.4-35.1-41.9-63.6-38.1c-65.4,4.1-115.9,86.5-130,169c-26.6,76.7-70,180-95.8,181.7c-18.7,1.5-25.4-70.3-18.7-154
			c7.5-83.7,12.7-133.1,21.7-198.9c1.5-10.5-6-14.2-21.7-14.2c-13.5,0-24.7,3-26.2,16.4c-1,9.2-8.2,54.4-14,105.6
			c-0.9,1.9-1.7,4.1-2.5,6.5c-15.7,52.3-50.1,96.5-87.5,136.1c-24.7-56.1-59.1-110.7-83.7-157c-20.9-39.6-20.2-50.1-20.2-86.7
			c0-22.4-44.9-23.9-44.9,0.7c0,37.5-2.5,74.2-11.5,111.2c-19.5,68.2-80,232-112.6,234.2c-18.7,1.5-25.4-70.3-18.7-154
			c7.5-83.7,12.7-133.1,21.7-198.9c1.5-10.5-6-14.2-21.7-14.2c-13.5,0-24.7,3-26.2,16.4c-0.7,5.2-3,20.9-6,43.4l-3-5.2
			c-12-28.4-35.1-41.9-63.6-38.1c-71.8,4.5-125.6,110.7-133.1,200.4c-6.7,97.2,29.2,169.7,88.2,162.3c34.4-5.2,69.5-62.1,94.2-121.1
			c-2.2,66.5,2.2,138.3,54.6,137.6c66.5-0.7,134.6-234,141.3-261.7c0.4-1.5,0.6-2.9,0.8-4.2c2.3-8.6,4.2-16,5.9-21.2
			c3.7-12,15-6.7,26.9,14.2c23.2,41.1,56.8,110.7,76.3,178c-32.2,32.2-63.6,62.1-82.2,92c-29.9,47.1-33.6,89-9.7,106.9
			c37.4,28.4,103.9,18.7,138.3-44.1c29.2-52.3,19.4-112.2-3.7-172c29.7-32.5,58.2-67.4,77.2-105.6c-0.7,9.8-1.3,19.4-1.7,28.6
			c-3,75.5-14.2,189.9,52.3,189.2c38.9-0.4,78.2-80.1,105.6-151.9c3,77.8,37,127.1,88.8,120.5c35.1-5.2,70.3-65.8,95-123.4
			c-3,71-3,155.5,53.8,154.8c23.9,0,53.8-17.9,81.5-53.8C1886.4,986.7,1876.6,972.5,1860.2,993.5z M974.2,852.9
			c-17.9,68.8-63.6,167.5-100.2,163.8c-15-1.5-32.9-59.1-26.9-135.3c6.7-94.2,42.6-176.5,78.5-181c20.9-3,28.4,6.7,39.6,25.4
			c6.7,9.7,12,24.7,17.2,40.4C979.4,793.8,975.7,824.5,974.2,852.9z M1280.7,1107.9c-23.2,47.1-62.1,52.3-82.2,38.1
			c-12-8.2-13.5-38.1,9.7-75.5c16.4-26.2,44.1-54.6,74-85.2C1293.4,1032.3,1295.7,1077.2,1280.7,1107.9z M1740.6,831.2
			c-15.7,62.1-62.1,174.2-101.7,170.5c-15-1.5-32.9-51.6-26.9-127.9c6.7-94.2,42.6-169,78.5-173.5c20.9-3,28.4,6.7,39.6,25.4
			c6.7,9.7,12,24.7,17.2,40.4L1740.6,831.2z"/>
	</g>
	<path class="st0" d="M2728.3,1056.3c-53.1,43.4-118.9,35.9-183.9-14.2c-41.9,38.1-74,65.8-152.5,61.3
		c-66.5-3.7-169.7-41.1-175.7-149.5c-7.5-103.9,62.8-183.2,125.6-246c-14.2-48.6-20.9-92-20.9-121.1c0-77,37.4-127.9,95.7-127.9
		c59.1,0,86,65.8,60.6,145.8c-15.7,47.9-59.8,87.5-103.2,131.6c18.7,55.3,46.4,116.6,83.7,171.2c29.2,42.6,59.1,77,88.2,101.7
		c38.1-44.1,59.1-100.9,41.9-151c-17.2-38.9-53.1-54.6-93.5-41.9c-17.2,7.5-33.6-14.2-6.7-21.7c53.1-16.4,99.4,5.2,120.4,55.3
		c15,32.9,12,112.2-44.1,173.5c56.8,42.6,109.2,48.6,150.3,15c36.6-31.4,56.1-71,29.2-111.4c-20.2-21.7-47.1-26.9-59.8-12.7
		c-12.7,12.7-33.6,13.5-17.2-14.2c21.7-26.2,61.3-20.2,94.2,12C2794.1,949.3,2779.1,1020.4,2728.3,1056.3z M2527.9,1027.8
		c-30.7-26.9-60.6-62.8-89-107.7c-35.9-52.3-62.8-110.7-82.3-165.2c-46.4,49.3-86.7,106.2-81.5,185.4
		c5.2,74.8,29.9,136.8,119.6,142.8C2440.4,1086.2,2489.8,1063,2527.9,1027.8z M2343.2,586.7c0,24.7,5.2,61.3,16.4,102.4
		c35.9-35.1,65.8-65.1,74.8-91.2c22.4-64.3,10.5-116.6-29.9-116.6C2371.6,481.3,2343.2,521.6,2343.2,586.7z"/>
	<g>
		<path class="st0" d="M5036.5,535.1c9,3.7,25.4,5.2,41.9-19.4c17.2-25.4,18.7-35.9,20.9-50.1c6-35.1-56.1-43.4-61.3-10.5
			c-3.7,22.4-4.5,29.2-8.2,44.1C5023.7,520.9,5029,532.1,5036.5,535.1z"/>
		<path class="st0" d="M5446.9,992.7c-18.7,23.9-38.9,41.9-56.1,41.9c-18.7,0-25.4-70.3-18.7-154c2.2-40.4,6-79.3,6-117.4
			c0-121.9-80.8-103.2-125.6-8.2c-15.7,33.6-30.7,88.2-42.6,143.6c3.7-80.8,6-162.3,6-233.3c-0.7-20.9-45.6-28.4-45.6-3
			c0,35.7-1.8,73.9-4.4,113.3c-2.5,1.4-5.3,5.7-7.5,13.8c-17.2,63.6-80.8,238.5-114.4,240.8c-18.7,1.5-25.4-70.3-18.7-154
			c7.5-83.7,12.7-133.1,21.7-198.9c1.5-10.5-6-14.2-21.7-14.2c-13.5,0-24.7,3-26.2,16.4c-1,9.3-8.3,55-14.1,106.6
			c-0.6,1.4-1.1,3-1.6,4.8c-28.4,103.2-79.3,233.3-154.8,237c-41.9,2.2-67.3-87.5-61.3-163.8c6.7-94.2,41.9-169,82.3-174.2
			c39.6-5.2,54.6,33.6,40.4,83.7c-5.2,18.7,15,17.2,22.4,1.5c23.9-61.3-11.2-112.9-70.3-105.4c-69.6,4.4-122.3,97.3-132.3,184.7
			c-27.1,75.8-70.5,173.3-101.7,172.7c-50.1-0.7-47.1-59.8-27.7-142.1c12-50.1,50.1-124.1,20.9-142.8c-13.5-9-70.3-21.7-114.4-46.4
			c-0.7-34.4-9-57.6-15.7-74.8c-16.4-39.6-83.7-44.9-62.1,23.9c11.2,35.1,36.6,60.6,62.1,79.3c-0.7,13.5-3,28.4-6,44.9
			c-2.7,12.9-5.6,26.1-9.3,39.4c-22.6,73.8-78.1,219.5-108.8,221.6c-18.7,1.5-25.4-70.3-18.7-154c7.5-83.7,12.7-133.1,21.7-198.9
			c1.5-10.5-6-14.2-21.7-14.2c-13.5,0-24.7,3-26.2,16.4c-0.7,5.2-3,20.9-6,43.4l-3-5.2c-12-28.4-35.1-41.9-63.6-38.1
			c-44.4,2.8-81.9,44.4-105.8,97c-1.9,2.2-3.9,6.1-5.5,12.1c-0.2,0.8-0.4,1.7-0.7,2.5c-5.9,14.9-10.7,30.4-14.3,46
			c-3.9,11.6-8.2,24-12.7,36.7c-24.7,62.8-47.1,126.4-76.3,187.7c-32.2,67.3-75.5,17.9-54.6-364.1c9.7-175-2.2-291.6-93.5-302.1
			c-66.5-7.5-93.5,74-114.4,166c-3-138.3-23.9-210.1-95-218.3c-75.5-8.2-118.9,117.4-147.3,224.3c1.5-65.8,5.2-130.1,16.4-186.9
			c29.2-8.2,55.3-20.9,74.8-44.1c82.3-97.2-37.4-169-95-56.8c-13.5,26.2-23.2,55.3-30.7,86.7c-84.5,11.2-193.7,7.5-283.4,67.3
			c-81.5,53.8-105.4,174.2-37.4,246c65.8,69.5,201.1,51.6,222.1-28.4c0-17.2-15-26.9-21.7-5.2c-13.5,50.1-99.4,79.3-163,9.7
			c-50.1-53.1-48.6-151,28.4-202.6c77.8-52.3,171.2-52.3,250.5-62.1c-15.7,84.5-15,183.9-15,284.9c0,127.9,0.7,255,5.2,382.1
			c0,26.9,55.3,18.7,53.1-1.5c-4.5-157-5.2-237.8-4.5-380.6v-32.9l0.7,0.7c36.6-147.3,87.5-284.1,140.6-278.2
			c26.2,3,52.3,41.9,39.6,332c-5.2,116.6-9.7,183.9-14.2,275.9c0.7,29.9,59.8,21.7,59.8,0.7c4.5-92,10.5-154,14.2-276.7
			c0-11.2,0.7-22.4,0.7-32.9c26.2-142.8,58.3-252.7,109.2-246.7c26.2,3,59.8,41.9,39.6,279.6c-41.9,491.3,92.7,473.3,135.3,369.4
			c23.7-57.5,41.7-106.6,60.5-158.7c1.4,82.6,35.8,140.8,89,134c34.4-5.2,69.5-62.1,94.2-121.1c-2.2,66.5,2.2,138.3,54.6,137.6
			c56.7-0.6,114.4-170,134.5-237.2c5.6-17.5,10.2-36.5,12.8-51.4c2.2-12.7,3.7-25.4,5.2-35.9c22.4,13.5,43.4,21.7,50.8,26.9
			c23.9,15-14.2,88.2-25.4,148.8c-10.5,58.3,5.2,149.5,80.8,148.8c49.7-0.4,90.5-78.6,117.3-149.9c7.7,77.2,49.3,138.7,118.3,138.7
			c74.7,0,122-97.8,150.6-184.9c-0.1,2.3-0.2,4.6-0.3,6.9c-3,75.5-14.2,189.9,52.3,189.2c54-0.6,108.9-154.2,131.4-227
			c-5.4,70-11.6,141.8-13.2,208.3c0,24.7,50.8,21.7,52.3,0c11.2-78.5,49.3-225.1,72.5-275.2c26.9-60.6,54.6-78.5,54.6,3.7
			c0,35.1-0.7,67.3-3,105.4c-3,75.5-14.2,189.9,52.3,189.2c23.9,0,53.8-23.2,81.5-59.1C5473.1,986,5463.4,971.8,5446.9,992.7z
			 M4435.3,644.3c-15-39.6,5.2-44.9,20.2-12c6.7,15,12.7,31.4,15,53.1C4454,674.2,4441.3,660.7,4435.3,644.3z M3559,278.6
			c32.2-61.3,85.2-29.2,24.7,42.6c-13.5,15.7-30.7,25.4-52.3,32.9C3538.8,326.5,3547,301.1,3559,278.6z M4282,852.9
			c-17.9,68.8-63.6,167.5-100.2,163.8c-15-1.5-32.9-59.1-26.9-135.3c6.7-94.2,42.6-176.5,78.5-181c20.9-3,28.4,6.7,39.6,25.4
			c6.7,9.7,12,24.7,17.2,40.4C4287.3,793.8,4283.5,824.5,4282,852.9z"/>
	</g>
</g>
</svg>
